<?xml version="1.0" encoding="utf-8"?>
<!-- Generator: Adobe Illustrator 16.0.0, SVG Export Plug-In . SVG Version: 6.00 Build 0)  -->
<!DOCTYPE svg PUBLIC "-//W3C//DTD SVG 1.1//EN" "http://www.w3.org/Graphics/SVG/1.1/DTD/svg11.dtd">
<svg version="1.1" id="Layer_1" xmlns="http://www.w3.org/2000/svg" xmlns:xlink="http://www.w3.org/1999/xlink" x="0px" y="0px"
	 width="612px" height="792px" viewBox="0 0 612 792" enable-background="new 0 0 612 792" xml:space="preserve">
<g>
	<path fill-rule="evenodd" clip-rule="evenodd" d="M1057,1146.971c-499.939,0-999.878,0-1499.909,0c0-499.868,0-999.766,0-1499.816
		c499.909,0,999.909,0,1499.909,0C1057,147.025,1057,646.983,1057,1146.971z M968.974,664.275c-329.086,0-657.598,0-985.983,0
		c0,5.643,0,10.72,0,15.991c333.813,0,667.223,0,1000.588,0c1.556-8.551,2.59-483.456,1.181-490.885c-267.206,0-534.347,0-801.383,0
		c0,5.976,0,11.047,0,16.659c262.077,0,523.777,0,785.598,0C968.974,358.858,968.974,511.123,968.974,664.275z M-356.322,665.71
		c0-153.597,0-306.806,0-460.643c110.694,0,221.06,0,331.549,0c0-5.553,0-10.476,0-15.987c-116.18,0-232.033,0-347.774,0
		c0,164.244,0,328.305,0,492.445c86.696,0,172.941,0,259.277,0c0-5.356,0-10.399,0-15.815
		C-194.437,665.71-275.208,665.71-356.322,665.71z M78.018,361.336c-0.353,1.824-0.351,2.499-0.608,3.053
		c-15.405,33.028-30.763,66.08-46.277,99.057c-15.027,31.943-30.276,63.782-45.322,95.717
		c-12.418,26.355-24.631,52.808-37.029,79.172c-10.131,21.541-20.438,42.998-30.599,64.524
		c-5.396,11.435-10.734,22.898-15.925,34.428c-2.243,4.982,0.733,10.05,5.213,8.794c2.047-0.573,3.979-3.269,5.021-5.451
		c14.83-31.05,29.517-62.169,44.201-93.288c19.433-41.183,38.799-82.396,58.256-123.565C40.407,469.906,65.942,416.073,91.392,362.2
		c1.76-3.726,3.249-7.603,4.556-11.512c1.208-3.618-1.06-5.506-4.216-5.819c-2.202-0.22-4.61,0.38-6.758,1.108
		c-6.92,2.348-13.721,5.051-20.666,7.311c-1.459,0.475-3.342-0.354-5.029-0.582c0.235-1.491,0.138-3.139,0.754-4.45
		c11.749-24.976,23.641-49.885,35.384-74.863c14.656-31.176,29.205-62.402,43.801-93.606c2.394-5.117,5.279-10.081,6.945-15.425
		c0.691-2.217-0.42-6.104-2.137-7.71c-2.788-2.609-5.47-0.229-7.323,2.43c-0.563,0.808-0.957,1.739-1.385,2.634
		c-6.157,12.874-12.339,25.736-18.451,38.631c-24.053,50.738-48.147,101.457-72.04,152.271c-3.042,6.469-7.009,11.121-14.192,12.739
		c-2.906,0.654-5.679,1.913-8.507,2.912c-6.599,2.329-13.152,4.801-19.823,6.899c-1.484,0.467-3.379-0.369-5.085-0.605
		c0.34-1.495,0.428-3.106,1.058-4.467c4.265-9.202,8.645-18.352,12.986-27.519c11.4-24.068,22.813-48.132,34.199-72.206
		c16.084-34.005,32.139-68.024,48.228-102.027c11.322-23.928,22.699-47.829,34.011-71.763c2.491-5.271,4.905-10.582,7.169-15.953
		c1.54-3.653,0.22-6.75-3.147-8.432c-3.346-1.672-5.165,0.601-6.458,3.49c-1.899,4.247-3.897,8.451-5.885,12.658
		c-17.67,37.395-35.366,74.775-53.016,112.179c-21.614,45.807-43.192,91.63-64.781,137.448
		c-6.866,14.572-13.858,29.089-20.444,43.788c-1.139,2.541-1.762,6.887-0.387,8.545c1.409,1.699,5.957,2.246,8.456,1.371
		c26.879-9.42,53.611-19.255,80.427-28.859C72.081,361.94,74.819,361.878,78.018,361.336z M222.813,525.991
		c1.421,1.595,1.984,2.136,2.443,2.755c9.923,13.379,23.066,22.449,38.443,28.374c21.251,8.187,42.88,9.813,64.375,1.464
		c22.621-8.788,38.004-25.337,47.223-47.561c16.831-40.577,17.637-81.964,4.513-123.536c-5.085-16.107-13.191-30.971-25.938-42.658
		c-36.427-33.399-97.957-25.827-126.177,15.462c-1.312,1.919-2.673,3.803-4.011,5.703c-0.346-0.156-0.691-0.313-1.038-0.469
		c0-44.744,0-89.488,0-134.134c-4.028,0-7.588,0-11.149,0c0,109.444,0,218.497,0,327.774c3.885,0,7.457,0,11.315,0
		C222.813,548.356,222.813,537.889,222.813,525.991z M653.841,436.223c1.298-20.953-1.104-40.578-9.53-59.181
		c-16.236-35.838-50.002-57.616-93.084-52.647c-30.378,3.505-53.636,19.826-69.282,45.616c-25.427,41.913-27.633,86.18-8.64,131.035
		c10.63,25.103,29.054,43.699,54.19,54.848c26.222,11.63,52.82,10.153,79.308,0.724c16.413-5.844,29.436-16.312,40.172-30.184
		c-2.901-1.998-5.475-3.77-8.238-5.672c-8.691,10.049-18.294,18.514-30.419,23.422c-29.948,12.122-59.454,12.335-87.534-5.164
		c-22.997-14.332-36.789-35.62-43.825-61.518c-3.647-13.424-4.621-27.071-3.689-41.279
		C533.552,436.223,593.47,436.223,653.841,436.223z M895.028,339.838c-1.327,1.696-1.897,2.472-2.515,3.207
		c-56.831,67.797-113.63,135.621-170.585,203.313c-3.47,4.125-3.499,8.14-2.731,12.797c69.363,0,138.429,0,207.559,0
		c0-3.8,0-7.236,0-11.365c-63.514,0-126.79,0-190.755,0c1.239-1.538,1.849-2.325,2.489-3.087
		c56.211-66.794,112.375-133.627,168.733-200.296c4.222-4.994,6.171-9.828,4.571-15.987c-61.933,0-123.64,0-185.173,0
		c0,3.995,0,7.556,0,11.419C782.68,339.838,838.305,339.838,895.028,339.838z M-339.534,248.586c0.446,1.493,0.883,3.075,1.39,4.634
		c32.259,99.324,64.522,198.647,96.791,297.969c2.719,8.367,2.75,8.063,10.856,8.447c4.244,0.202,5.596-1.511,6.792-5.197
		c27.188-83.838,54.504-167.635,81.798-251.438c5.916-18.164,11.834-36.326,17.918-55c-2.79,0-5.106,0.204-7.372-0.047
		c-3.518-0.39-5.403,0.706-6.347,4.391c-1.523,5.949-3.645,11.747-5.533,17.604c-29.236,90.689-58.474,181.378-87.733,272.061
		c-0.215,0.667-0.728,1.238-1.407,2.359c-1.894-6.383-3.47-12.147-5.309-17.828c-29.043-89.705-58.126-179.398-87.184-269.1
		c-3.318-10.242-3.274-10.257-13.976-9.237C-338.99,248.216-339.119,248.349-339.534,248.586z M-83.156,438.764
		c3.171-7.053,5.704-12.94,8.439-18.732c15.672-33.186,31.442-66.324,47.078-99.527c15.435-32.773,30.758-65.6,46.105-98.415
		c2.392-5.112,4.814-10.221,6.921-15.452c1.573-3.909-0.219-7.322-3.759-8.543c-1.41-0.487-4.063,2.218-5.952,3.718
		c-0.841,0.667-1.267,1.915-1.758,2.957c-13.007,27.612-25.981,55.239-38.994,82.849c-18.831,39.953-37.697,79.89-56.526,119.844
		c-6.089,12.923-12.273,25.807-17.986,38.896c-0.923,2.113-0.354,5.723,0.969,7.648c0.769,1.117,4.617,0.873,6.732,0.18
		c9.497-3.109,18.875-6.584,28.285-9.956c18.512-6.632,37.003-13.319,55.546-19.861c1.555-0.549,3.433-0.179,5.16-0.235
		c-0.17,1.841,0.055,3.835-0.589,5.492c-1.623,4.181-3.578,8.238-5.506,12.296c-10.076,21.218-20.244,42.394-30.271,63.636
		c-17.837,37.787-35.606,75.605-53.373,113.425c-2.828,6.021-5.813,12.004-8.032,18.251c-0.663,1.867,0.319,5.384,1.817,6.7
		c2.122,1.864,5.065,0.939,6.858-1.66c0.938-1.361,1.887-2.744,2.599-4.229c5.97-12.457,11.923-24.921,17.81-37.416
		c23.597-50.086,47.173-100.182,70.744-150.279c5.303-11.27,10.769-22.471,15.652-33.92c0.961-2.251,0.39-6.049-1.009-8.075
		c-0.832-1.205-4.907-1.065-7.098-0.304c-27.699,9.634-55.316,19.504-82.974,29.259C-78.032,437.931-79.958,438.104-83.156,438.764z
		 M117.669,412.231c-1.076-2.006-1.642-4.673-3.159-5.428c-1.487-0.74-4.621-0.221-5.824,0.968c-2.11,2.087-3.517,5.002-4.837,7.753
		c-9.559,19.909-19.077,39.839-28.5,59.813c-9.36,19.845-18.58,39.756-27.887,59.625c-8.754,18.688-17.584,37.34-26.282,56.054
		c-2.208,4.749-1.444,8.856,1.702,10.085c4.7,1.836,6.162-1.869,7.689-4.989c6.932-14.162,13.885-28.315,20.64-42.562
		c19.776-41.707,39.471-83.453,59.17-125.196C112.846,423.132,115.144,417.831,117.669,412.231z"/>
	<path fill-rule="evenodd" clip-rule="evenodd" fill="#FFFFFF" d="M968.974,664.275c0-153.152,0-305.417,0-458.234
		c-261.82,0-523.521,0-785.598,0c0-5.612,0-10.684,0-16.659c267.036,0,534.177,0,801.383,0c1.409,7.429,0.375,482.334-1.181,490.885
		c-333.365,0-666.774,0-1000.588,0c0-5.271,0-10.349,0-15.991C311.376,664.275,639.888,664.275,968.974,664.275z"/>
	<path fill-rule="evenodd" clip-rule="evenodd" fill="#FFFFFF" d="M-356.322,665.71c81.114,0,161.885,0,243.052,0
		c0,5.416,0,10.459,0,15.815c-86.336,0-172.582,0-259.277,0c0-164.141,0-328.201,0-492.445c115.742,0,231.595,0,347.774,0
		c0,5.512,0,10.435,0,15.987c-110.489,0-220.855,0-331.549,0C-356.322,358.904-356.322,512.113-356.322,665.71z"/>
	<path fill-rule="evenodd" clip-rule="evenodd" fill="#FFFFFF" d="M78.018,361.336c-3.198,0.542-5.937,0.604-8.384,1.48
		c-26.815,9.604-53.548,19.439-80.427,28.859c-2.499,0.875-7.047,0.328-8.456-1.371c-1.375-1.658-0.752-6.004,0.387-8.545
		c6.586-14.699,13.578-29.216,20.444-43.788c21.589-45.818,43.167-91.642,64.781-137.448
		c17.649-37.403,35.346-74.784,53.016-112.179c1.987-4.207,3.985-8.411,5.885-12.658c1.293-2.89,3.112-5.162,6.458-3.49
		c3.367,1.682,4.688,4.778,3.147,8.432c-2.264,5.371-4.678,10.683-7.169,15.953c-11.312,23.934-22.688,47.835-34.011,71.763
		c-16.089,34.003-32.144,68.022-48.228,102.027c-11.387,24.074-22.799,48.138-34.199,72.206
		c-4.342,9.167-8.722,18.316-12.986,27.519c-0.63,1.36-0.718,2.972-1.058,4.467c1.706,0.236,3.601,1.072,5.085,0.605
		c6.671-2.099,13.225-4.57,19.823-6.899c2.828-0.999,5.601-2.258,8.507-2.912c7.184-1.618,11.15-6.271,14.192-12.739
		c23.893-50.814,47.987-101.533,72.04-152.271c6.112-12.895,12.294-25.757,18.451-38.631c0.428-0.895,0.821-1.826,1.385-2.634
		c1.854-2.658,4.535-5.039,7.323-2.43c1.717,1.605,2.828,5.493,2.137,7.71c-1.666,5.344-4.552,10.308-6.945,15.425
		c-14.596,31.204-29.145,62.431-43.801,93.606c-11.743,24.979-23.635,49.888-35.384,74.863c-0.616,1.312-0.519,2.959-0.754,4.45
		c1.688,0.228,3.57,1.057,5.029,0.582c6.945-2.26,13.746-4.963,20.666-7.311c2.147-0.729,4.556-1.328,6.758-1.108
		c3.156,0.313,5.424,2.201,4.216,5.819c-1.307,3.909-2.796,7.786-4.556,11.512c-25.449,53.873-50.984,107.706-76.443,161.575
		c-19.457,41.17-38.823,82.383-58.256,123.565c-14.685,31.119-29.371,62.238-44.201,93.288c-1.042,2.183-2.975,4.878-5.021,5.451
		c-4.479,1.256-7.456-3.812-5.213-8.794c5.19-11.529,10.528-22.993,15.925-34.428c10.161-21.526,20.468-42.983,30.599-64.524
		c12.398-26.364,24.611-52.816,37.029-79.172c15.046-31.935,30.295-63.773,45.322-95.717c15.515-32.977,30.872-66.028,46.277-99.057
		C77.667,363.835,77.665,363.16,78.018,361.336z"/>
	<path fill-rule="evenodd" clip-rule="evenodd" fill="#FFFFFF" d="M222.813,525.991c0,11.897,0,22.365,0,33.175
		c-3.858,0-7.431,0-11.315,0c0-109.277,0-218.33,0-327.774c3.562,0,7.121,0,11.149,0c0,44.646,0,89.39,0,134.134
		c0.347,0.156,0.692,0.313,1.038,0.469c1.338-1.9,2.699-3.784,4.011-5.703c28.22-41.289,89.75-48.861,126.177-15.462
		c12.746,11.688,20.853,26.551,25.938,42.658c13.124,41.572,12.318,82.959-4.513,123.536c-9.219,22.224-24.602,38.772-47.223,47.561
		c-21.495,8.35-43.124,6.723-64.375-1.464c-15.377-5.925-28.521-14.995-38.443-28.374
		C224.798,528.127,224.234,527.586,222.813,525.991z M222.902,447.272c0,17.162-0.156,34.326,0.12,51.483
		c0.062,3.84,0.975,7.972,2.624,11.432c15.54,32.595,55.386,48.206,90.739,39.941c25.069-5.859,39.879-23.358,49.508-46.078
		c7.318-17.267,10.056-35.482,10.562-54.067c0.744-27.341-2.983-53.83-16.41-78.189c-9.076-16.465-22.465-28.223-40.638-33.3
		c-37.295-10.42-74.587,6.552-91.855,41.192c-3.066,6.151-4.946,12.472-4.771,19.603
		C223.172,415.275,222.902,431.277,222.902,447.272z"/>
	<path fill-rule="evenodd" clip-rule="evenodd" fill="#FFFFFF" d="M653.841,436.223c-60.371,0-120.289,0-180.572,0
		c-0.932,14.208,0.042,27.855,3.689,41.279c7.036,25.897,20.828,47.186,43.825,61.518c28.08,17.499,57.586,17.286,87.534,5.164
		c12.125-4.908,21.728-13.373,30.419-23.422c2.764,1.902,5.337,3.674,8.238,5.672c-10.736,13.872-23.759,24.34-40.172,30.184
		c-26.487,9.43-53.086,10.906-79.308-0.724c-25.137-11.148-43.561-29.745-54.19-54.848c-18.993-44.855-16.787-89.122,8.64-131.035
		c15.646-25.79,38.904-42.111,69.282-45.616c43.082-4.969,76.848,16.81,93.084,52.647
		C652.737,395.645,655.139,415.27,653.841,436.223z M642.538,424.223c0.21-11.927-1.536-22.983-5.381-33.711
		c-16.249-45.338-61.079-66.964-106.813-48.569c-23.542,9.469-38.338,28.02-47.944,50.953c-4.155,9.922-7.069,20.228-8.129,31.327
		C530.442,424.223,586.156,424.223,642.538,424.223z"/>
	<path fill-rule="evenodd" clip-rule="evenodd" fill="#FFFFFF" d="M895.028,339.838c-56.724,0-112.349,0-168.406,0
		c0-3.863,0-7.424,0-11.419c61.533,0,123.24,0,185.173,0c1.6,6.159-0.35,10.993-4.571,15.987
		c-56.358,66.669-112.522,133.502-168.733,200.296c-0.641,0.762-1.25,1.549-2.489,3.087c63.965,0,127.241,0,190.755,0
		c0,4.129,0,7.565,0,11.365c-69.13,0-138.195,0-207.559,0c-0.768-4.657-0.738-8.672,2.731-12.797
		c56.955-67.691,113.754-135.516,170.585-203.313C893.131,342.31,893.701,341.534,895.028,339.838z"/>
	<path fill-rule="evenodd" clip-rule="evenodd" fill="#FFFFFF" d="M-339.534,248.586c0.415-0.237,0.544-0.37,0.685-0.384
		c10.702-1.02,10.658-1.005,13.976,9.237c29.058,89.701,58.14,179.395,87.184,269.1c1.839,5.681,3.415,11.445,5.309,17.828
		c0.68-1.121,1.192-1.692,1.407-2.359c29.259-90.683,58.497-181.371,87.733-272.061c1.888-5.856,4.009-11.654,5.533-17.604
		c0.943-3.685,2.829-4.78,6.347-4.391c2.266,0.251,4.582,0.047,7.372,0.047c-6.084,18.674-12.003,36.836-17.918,55
		c-27.293,83.804-54.609,167.601-81.798,251.438c-1.196,3.687-2.548,5.399-6.792,5.197c-8.105-0.385-8.137-0.08-10.856-8.447
		c-32.268-99.321-64.531-198.645-96.791-297.969C-338.65,251.661-339.087,250.079-339.534,248.586z"/>
	<path fill-rule="evenodd" clip-rule="evenodd" fill="#FFFFFF" d="M-83.156,438.764c3.198-0.66,5.124-0.833,6.891-1.456
		c27.657-9.755,55.274-19.625,82.974-29.259c2.19-0.762,6.266-0.901,7.098,0.304c1.398,2.026,1.97,5.824,1.009,8.075
		c-4.884,11.449-10.35,22.65-15.652,33.92c-23.571,50.098-47.147,100.193-70.744,150.279c-5.887,12.495-11.84,24.959-17.81,37.416
		c-0.712,1.484-1.66,2.867-2.599,4.229c-1.793,2.6-4.736,3.524-6.858,1.66c-1.498-1.316-2.48-4.833-1.817-6.7
		c2.219-6.247,5.204-12.23,8.032-18.251c17.767-37.819,35.536-75.638,53.373-113.425c10.026-21.242,20.194-42.418,30.271-63.636
		c1.928-4.058,3.883-8.115,5.506-12.296c0.644-1.657,0.419-3.651,0.589-5.492c-1.728,0.057-3.605-0.313-5.16,0.235
		c-18.543,6.542-37.034,13.229-55.546,19.861c-9.41,3.372-18.788,6.847-28.285,9.956c-2.115,0.693-5.964,0.938-6.732-0.18
		c-1.323-1.926-1.892-5.535-0.969-7.648c5.713-13.089,11.897-25.973,17.986-38.896c18.829-39.954,37.695-79.891,56.526-119.844
		c13.013-27.609,25.987-55.236,38.994-82.849c0.491-1.042,0.917-2.29,1.758-2.957c1.89-1.5,4.542-4.205,5.952-3.718
		c3.54,1.221,5.332,4.634,3.759,8.543c-2.106,5.231-4.529,10.34-6.921,15.452c-15.348,32.815-30.671,65.642-46.105,98.415
		c-15.636,33.203-31.406,66.342-47.078,99.527C-77.452,425.823-79.985,431.711-83.156,438.764z"/>
	<path fill-rule="evenodd" clip-rule="evenodd" fill="#FFFFFF" d="M117.669,412.231c-2.525,5.6-4.823,10.9-7.288,16.123
		c-19.699,41.743-39.394,83.489-59.17,125.196c-6.755,14.246-13.708,28.399-20.64,42.562c-1.527,3.12-2.989,6.825-7.689,4.989
		c-3.146-1.229-3.91-5.336-1.702-10.085c8.698-18.714,17.528-37.365,26.282-56.054c9.307-19.869,18.526-39.78,27.887-59.625
		c9.423-19.975,18.941-39.904,28.5-59.813c1.32-2.751,2.727-5.666,4.837-7.753c1.203-1.188,4.337-1.708,5.824-0.968
		C116.027,407.559,116.593,410.226,117.669,412.231z"/>
	<path fill-rule="evenodd" clip-rule="evenodd" d="M222.902,447.272c0-15.995,0.27-31.997-0.122-47.983
		c-0.175-7.131,1.705-13.451,4.771-19.603c17.269-34.641,54.561-51.612,91.855-41.192c18.173,5.077,31.562,16.835,40.638,33.3
		c13.427,24.359,17.154,50.849,16.41,78.189c-0.506,18.585-3.243,36.801-10.562,54.067c-9.629,22.72-24.438,40.219-49.508,46.078
		c-35.354,8.265-75.199-7.347-90.739-39.941c-1.649-3.46-2.563-7.592-2.624-11.432C222.746,481.599,222.902,464.435,222.902,447.272
		z"/>
	<path fill-rule="evenodd" clip-rule="evenodd" d="M642.538,424.223c-56.382,0-112.096,0-168.268,0
		c1.06-11.1,3.974-21.405,8.129-31.327c9.606-22.934,24.402-41.484,47.944-50.953c45.734-18.395,90.564,3.231,106.813,48.569
		C641.002,401.239,642.748,412.296,642.538,424.223z"/>
</g>
</svg>
